# xmcd
#
# Track frame offsets: 
#        150
#        16657
#        29243
#        42482
#        61575
#        78260
#        94958
#        113918
#        131908
#        147050
#        163301
#        184613
#        205368
#
# Disc length: 2922 seconds
#
# Revision: 0
# Processed by: cddbd v1.5.2PL0 Copyright (c) Steve Scherf et al.
# Submitted via: ExactAudioCopy v0.99pb5
#
DISCID=b50b680d
DTITLE=Patty Reese - Here And Now
DYEAR=2003
DGENRE=Country
TTITLE0=Make Way For Love
TTITLE1=She's So Happy (to have a boy like you)
TTITLE2=If I Were You
TTITLE3=To The Top
TTITLE4=Bought A Shotgun
TTITLE5=Fly Just The Same
TTITLE6=Never Again
TTITLE7=Henry
TTITLE8=Train
TTITLE9=Take You With Me
TTITLE10=Stuck On The Outside
TTITLE11=Miss America
TTITLE12=Blow Wind Blow
EXTD=
EXTT0=
EXTT1=
EXTT2=
EXTT3=
EXTT4=
EXTT5=
EXTT6=
EXTT7=
EXTT8=
EXTT9=
EXTT10=
EXTT11=
EXTT12=
PLAYORDER=
